<svg viewBox="0 0 64 64" fill="none" xmlns="http://www.w3.org/2000/svg">
  <ellipse cx="32" cy="54" rx="14" ry="4" fill="#000" opacity="0.25"/>
  <path d="M32 10c-8 0-14 6.5-14 14.5 0 5.5 2.8 10.3 7 13.2V50h14V37.7c4.2-2.9 7-7.7 7-13.2C46 16.5 40 10 32 10z" fill="url(#charHelmet)"/>
  <path d="M20 26c0-6.6 5.4-12 12-12s12 5.4 12 12" stroke="#fde68a" stroke-width="2.5" stroke-linecap="round"/>
  <rect x="24" y="40" width="16" height="4" rx="2" fill="#cbd5e1"/>
  <path d="M28 18h8l-1 6h-6l-1-6z" fill="#1e3a5f" opacity="0.85"/>
  <defs>
    <linearGradient id="charHelmet" x1="32" y1="10" x2="32" y2="50" gradientUnits="userSpaceOnUse">
      <stop stop-color="#fbbf24"/>
      <stop offset="0.5" stop-color="#d97706"/>
      <stop offset="1" stop-color="#92400e"/>
    </linearGradient>
  </defs>
</svg>
